# xmcd CD database file
#
# Track frame offsets:
#	150
#	42551
#	64420
#	86883
#	112527
#	145325
#	173489
#	202995
#	226327
#
# Disc length: 3480 seconds
#
# Revision: 0
# Processed by: cddbd v1.5PL3 Copyright (c) Steve Scherf et al.
# Submitted via: CDex 1.50
#
DISCID=750d9609
DTITLE=Peter Erskine - you never know
DYEAR=1992
DGENRE=Jazz
TTITLE0=New Old Age
TTITLE1=Clapperclowe
TTITLE2=On The Lake
TTITLE3=Amber Waves
TTITLE4=She Never Has A Windbow
TTITLE5=Evans Above
TTITLE6=Pure and Simple
TTITLE7=Heart Game
TTITLE8=Everything I Love
EXTD=YEAR: 1992
EXTT0=
EXTT1=
EXTT2=
EXTT3=
EXTT4=
EXTT5=
EXTT6=
EXTT7=
EXTT8=
PLAYORDER=
